<svg xmlns="http://www.w3.org/2000/svg" xmlns:xlink="http://www.w3.org/1999/xlink" version="1.1" width="256" height="256" viewBox="0 0 256 256" xml:space="preserve">

<defs>
</defs>
<g style="stroke: none; stroke-width: 0; stroke-dasharray: none; stroke-linecap: butt; stroke-linejoin: miter; stroke-miterlimit: 10; fill: none; fill-rule: nonzero; opacity: 1;" transform="translate(1.4065934065934016 1.4065934065934016) scale(2.81 2.81)" >
	<path d="M 74.885 1.91 L 74.885 1.91 l -2.814 -1.569 L 72.068 0.35 c -0.601 -0.388 -1.396 -0.47 -2.104 -0.061 L 12.819 33.282 c -1.198 0.692 -1.936 1.97 -1.936 3.353 v 47.722 c 0 0.841 0.448 1.522 1.077 1.904 l -0.004 0.005 l 0.039 0.022 c 0.003 0.002 0.007 0.004 0.011 0.006 l 3.387 1.886 l 2.814 1.569 l 1.232 -2.322 l -0.946 -0.402 l 55.234 -31.889 c 1.29 -0.745 2.085 -2.122 2.085 -3.612 V 5.296 l 0.712 0.221 l 1.639 -1.777 L 74.885 1.91 z" style="stroke: none; stroke-width: 1; stroke-dasharray: none; stroke-linecap: butt; stroke-linejoin: miter; stroke-miterlimit: 10; fill: rgb(145,161,185); fill-rule: nonzero; opacity: 1;" transform=" matrix(1 0 0 1 0 0) " stroke-linecap="round" />
	<path d="M 77.021 56.973 l -56.68 32.724 c -1.489 0.86 -3.35 -0.215 -3.35 -1.934 V 40.042 c 0 -1.383 0.738 -2.661 1.936 -3.353 L 76.072 3.696 c 1.348 -0.778 3.034 0.195 3.034 1.752 v 47.914 C 79.106 54.851 78.311 56.228 77.021 56.973 z" style="stroke: none; stroke-width: 1; stroke-dasharray: none; stroke-linecap: butt; stroke-linejoin: miter; stroke-miterlimit: 10; fill: rgb(211,220,232); fill-rule: nonzero; opacity: 1;" transform=" matrix(1 0 0 1 0 0) " stroke-linecap="round" />
	<path d="M 57.084 42.01 l -9.091 -5.174 c -0.071 -0.042 -0.143 -0.083 -0.215 -0.122 l -0.042 -0.024 l -0.001 0.002 c -2.804 -1.493 -6.664 -0.806 -10.717 2.38 c -7.333 5.764 -12.511 17.512 -11.567 26.24 c 0.399 3.684 1.827 6.235 3.893 7.527 l -0.005 0.003 l 0.119 0.067 c 0.074 0.044 0.149 0.087 0.225 0.128 l 9.046 5.151 l 1.381 -6.181 l -1.104 -0.302 c 0.474 -0.308 0.952 -0.649 1.433 -1.027 c 6.778 -5.328 11.704 -15.764 11.667 -24.206 L 57.084 42.01 z" style="stroke: none; stroke-width: 1; stroke-dasharray: none; stroke-linecap: butt; stroke-linejoin: miter; stroke-miterlimit: 10; fill: rgb(145,161,185); fill-rule: nonzero; opacity: 1;" transform=" matrix(1 0 0 1 0 0) " stroke-linecap="round" />
	<ellipse cx="48.08" cy="60.205" rx="20.3" ry="11.215" style="stroke: none; stroke-width: 1; stroke-dasharray: none; stroke-linecap: butt; stroke-linejoin: miter; stroke-miterlimit: 10; fill: rgb(226,233,242); fill-rule: nonzero; opacity: 1;" transform=" matrix(0.432 -0.9019 0.9019 0.432 -26.9814 77.5619) "/>
	<ellipse cx="48.086" cy="60.199" rx="14.896" ry="8.229" style="stroke: none; stroke-width: 1; stroke-dasharray: none; stroke-linecap: butt; stroke-linejoin: miter; stroke-miterlimit: 10; fill: rgb(104,150,215); fill-rule: nonzero; opacity: 1;" transform=" matrix(0.432 -0.9019 0.9019 0.432 -26.9814 77.5619) "/>
	<ellipse cx="61.767" cy="24.596" rx="2.817" ry="1.556" style="stroke: none; stroke-width: 1; stroke-dasharray: none; stroke-linecap: butt; stroke-linejoin: miter; stroke-miterlimit: 10; fill: rgb(145,161,185); fill-rule: nonzero; opacity: 1;" transform=" matrix(0.432 -0.9019 0.9019 0.432 12.9032 69.6744) "/>
	<ellipse cx="23.477" cy="47.635999999999996" rx="2.817" ry="1.556" style="stroke: none; stroke-width: 1; stroke-dasharray: none; stroke-linecap: butt; stroke-linejoin: miter; stroke-miterlimit: 10; fill: rgb(145,161,185); fill-rule: nonzero; opacity: 1;" transform=" matrix(0.432 -0.9019 0.9019 0.432 -29.6208 48.234) "/>
	<path d="M 73.992 20.108 l -6.442 3.719 c -0.169 0.098 -0.381 -0.024 -0.381 -0.22 v -5.424 c 0 -0.157 0.084 -0.302 0.22 -0.381 l 6.495 -3.75 c 0.153 -0.088 0.345 0.022 0.345 0.199 v 5.446 C 74.229 19.867 74.139 20.024 73.992 20.108 z" style="stroke: none; stroke-width: 1; stroke-dasharray: none; stroke-linecap: butt; stroke-linejoin: miter; stroke-miterlimit: 10; fill: rgb(145,161,185); fill-rule: nonzero; opacity: 1;" transform=" matrix(1 0 0 1 0 0) " stroke-linecap="round" />
</g>
</svg>