<svg xmlns="http://www.w3.org/2000/svg" xmlns:xlink="http://www.w3.org/1999/xlink" version="1.1" width="256" height="256" viewBox="0 0 256 256" xml:space="preserve">

<defs>
</defs>
<g style="stroke: none; stroke-width: 0; stroke-dasharray: none; stroke-linecap: butt; stroke-linejoin: miter; stroke-miterlimit: 10; fill: none; fill-rule: nonzero; opacity: 1;" transform="translate(1.4065934065934016 1.4065934065934016) scale(2.81 2.81)" >
	<path d="M 60.231 23.039 l 0.381 0.118 l 0.878 -0.952 l -1.26 -0.703 L 60.503 2.35 l 0.363 -0.159 l 1.302 -0.661 l -2.434 -1.357 l -0.002 0.005 c -0.322 -0.208 -0.748 -0.252 -1.127 -0.033 L 27.989 17.821 c -0.642 0.371 -1.037 1.055 -1.037 1.796 V 40.67 v 4.515 v 16.538 v 4.515 v 21.053 c 0 0.45 0.24 0.816 0.577 1.02 l -0.002 0.003 l 0.021 0.012 c 0.002 0.001 0.004 0.002 0.006 0.003 l 2.942 1.573 l -0.467 -1.807 l 0.851 -0.426 l 28.234 -16.874 c 0.691 -0.399 1.117 -1.137 1.117 -1.935 V 47.806 v -3.714 l 0.381 0.118 l 0.878 -0.952 l -1.26 -0.703 V 26.754 V 23.039 z" style="stroke: none; stroke-width: 1; stroke-dasharray: none; stroke-linecap: butt; stroke-linejoin: miter; stroke-miterlimit: 10; fill: rgb(145,161,185); fill-rule: nonzero; opacity: 1;" transform=" matrix(1 0 0 1 0 0) " stroke-linecap="round" />
	<path d="M 61.423 1.656 L 30.806 19.333 c -0.642 0.37 -1.037 1.055 -1.037 1.796 v 21.053 v 4.515 v 16.538 v 4.515 v 21.053 c 0 0.921 0.997 1.497 1.795 1.036 l 30.367 -17.533 c 0.691 -0.399 1.117 -1.137 1.117 -1.935 V 49.318 V 44.7 V 28.265 v -4.618 V 2.594 C 63.048 1.76 62.145 1.239 61.423 1.656 z" style="stroke: none; stroke-width: 1; stroke-dasharray: none; stroke-linecap: butt; stroke-linejoin: miter; stroke-miterlimit: 10; fill: rgb(211,220,232); fill-rule: nonzero; opacity: 1;" transform=" matrix(1 0 0 1 0 0) " stroke-linecap="round" />
	<polygon points="31.75,20.95 31.75,42.01 31.75,45.47 31.75,57.8 31.75,66.52 31.75,82.31 61.15,65.21 61.15,49.42 61.15,40.7 61.15,28.37 61.15,24.91 61.15,3.86 " style="stroke: none; stroke-width: 1; stroke-dasharray: none; stroke-linecap: butt; stroke-linejoin: miter; stroke-miterlimit: 10; fill: rgb(93,141,209); fill-rule: nonzero; opacity: 1;" transform="  matrix(1 0 0 1 0 0) "/>
	<polygon points="39.16,16.64 31.75,32.54 31.75,39.61 44.07,13.79 " style="stroke: none; stroke-width: 1; stroke-dasharray: none; stroke-linecap: butt; stroke-linejoin: miter; stroke-miterlimit: 10; fill: rgb(104,150,215); fill-rule: nonzero; opacity: 1;" transform="  matrix(1 0 0 1 0 0) "/>
	<polygon points="50.06,10.3 31.75,49.58 31.91,58.75 56.94,6.31 " style="stroke: none; stroke-width: 1; stroke-dasharray: none; stroke-linecap: butt; stroke-linejoin: miter; stroke-miterlimit: 10; fill: rgb(104,150,215); fill-rule: nonzero; opacity: 1;" transform="  matrix(1 0 0 1 0 0) "/>
	<ellipse cx="48.145" cy="76.546" rx="1.825" ry="1.376" style="stroke: none; stroke-width: 1; stroke-dasharray: none; stroke-linecap: butt; stroke-linejoin: miter; stroke-miterlimit: 10; fill: rgb(145,161,185); fill-rule: nonzero; opacity: 1;" transform=" matrix(0.6453 -0.7639 0.7639 0.6453 -41.3985 63.9288) "/>
</g>
</svg>