<svg xmlns="http://www.w3.org/2000/svg" xmlns:xlink="http://www.w3.org/1999/xlink" version="1.1" width="256" height="256" viewBox="0 0 256 256" xml:space="preserve">

<defs>
</defs>
<g style="stroke: none; stroke-width: 0; stroke-dasharray: none; stroke-linecap: butt; stroke-linejoin: miter; stroke-miterlimit: 10; fill: none; fill-rule: nonzero; opacity: 1;" transform="translate(1.4065934065934016 1.4065934065934016) scale(2.81 2.81)" >
	<path d="M 60.37 0.293 c 0 0 -0.001 0 -0.001 -0.001 l -0.003 -0.002 h 0 c -0.618 -0.323 -1.409 -0.391 -2.272 -0.132 L 28.757 8.964 c -1.976 0.593 -3.578 2.676 -3.578 4.652 v 72.147 c 0 1.114 0.509 1.956 1.307 2.372 l 0 0 l 3.221 1.609 l 1.448 -1.698 l -0.537 -0.338 l 27.475 -8.246 c 1.976 -0.593 3.578 -2.676 3.578 -4.652 V 3.394 l 1.281 0.093 l 0.533 -1.637 L 60.37 0.293 z" style="stroke: none; stroke-width: 1; stroke-dasharray: none; stroke-linecap: butt; stroke-linejoin: miter; stroke-miterlimit: 10; fill: rgb(212,208,237); fill-rule: nonzero; opacity: 1;" transform=" matrix(1 0 0 1 0 0) " stroke-linecap="round" />
	<path d="M 61.243 81.036 l -29.337 8.805 c -1.976 0.593 -3.578 -0.528 -3.578 -2.504 V 15.19 c 0 -1.976 1.602 -4.059 3.578 -4.652 l 29.337 -8.805 c 1.976 -0.593 3.578 0.528 3.578 2.504 v 72.147 C 64.821 78.36 63.219 80.443 61.243 81.036 z" style="stroke: none; stroke-width: 1; stroke-dasharray: none; stroke-linecap: butt; stroke-linejoin: miter; stroke-miterlimit: 10; fill: rgb(249,249,249); fill-rule: nonzero; opacity: 1;" transform=" matrix(1 0 0 1 0 0) " stroke-linecap="round" />
	<polygon points="62.95,71.96 30.2,81.79 30.2,16.52 62.95,6.69 " style="stroke: none; stroke-width: 1; stroke-dasharray: none; stroke-linecap: butt; stroke-linejoin: miter; stroke-miterlimit: 10; fill: rgb(152,141,230); fill-rule: nonzero; opacity: 1;" transform="  matrix(1 0 0 1 0 0) "/>
	<ellipse cx="46.56999999999999" cy="81.48" rx="2.09" ry="1.55" style="stroke: none; stroke-width: 1; stroke-dasharray: none; stroke-linecap: butt; stroke-linejoin: miter; stroke-miterlimit: 10; fill: rgb(212,208,237); fill-rule: nonzero; opacity: 1;" transform=" matrix(0.6525 -0.7578 0.7578 0.6525 -45.5563 63.6029) "/>
	<path d="M 52.149 8.117 L 41 11.464 c -0.449 0.135 -0.813 -0.12 -0.813 -0.569 v 0 c 0 -0.449 0.364 -0.922 0.813 -1.057 l 11.148 -3.346 c 0.449 -0.135 0.813 0.12 0.813 0.569 v 0 C 52.962 7.51 52.598 7.983 52.149 8.117 z" style="stroke: none; stroke-width: 1; stroke-dasharray: none; stroke-linecap: butt; stroke-linejoin: miter; stroke-miterlimit: 10; fill: rgb(212,208,237); fill-rule: nonzero; opacity: 1;" transform=" matrix(1 0 0 1 0 0) " stroke-linecap="round" />
</g>
</svg>