<svg xmlns="http://www.w3.org/2000/svg" xmlns:xlink="http://www.w3.org/1999/xlink" version="1.1" width="256" height="256" viewBox="0 0 256 256" xml:space="preserve">

<defs>
</defs>
<g style="stroke: none; stroke-width: 0; stroke-dasharray: none; stroke-linecap: butt; stroke-linejoin: miter; stroke-miterlimit: 10; fill: none; fill-rule: nonzero; opacity: 1;" transform="translate(1.4065934065934016 1.4065934065934016) scale(2.81 2.81)" >
	<path d="M 30.548 89.646 l 57.97 -33.877 c 0.434 -0.282 0.61 -0.718 0.607 -1.373 C 88.355 29.93 78.382 14.441 61.383 6.943 c -0.477 -0.217 -1.306 -0.059 -1.935 0.268 L 1.647 40.956 L 30.548 89.646 z" style="stroke: none; stroke-width: 1; stroke-dasharray: none; stroke-linecap: butt; stroke-linejoin: miter; stroke-miterlimit: 10; fill: rgb(187,201,220); fill-rule: nonzero; opacity: 1;" transform=" matrix(1 0 0 1 0 0) " stroke-linecap="round" />
	<path d="M 28.632 89.765 L 3.847 75.455 c -1.839 -1.062 -2.972 -3.024 -2.972 -5.148 l 0 -27.834 c 0 -1.352 1.393 -2.273 2.63 -1.727 c 16.999 7.498 26.972 22.987 27.742 47.453 C 31.29 89.562 29.814 90.447 28.632 89.765 z" style="stroke: none; stroke-width: 1; stroke-dasharray: none; stroke-linecap: butt; stroke-linejoin: miter; stroke-miterlimit: 10; fill: rgb(145,161,185); fill-rule: nonzero; opacity: 1;" transform=" matrix(1 0 0 1 0 0) " stroke-linecap="round" />
	<path d="M 44.431 59.472 L 70.16 44.618 c 0.643 -0.371 0.992 -1.114 0.842 -1.842 C 68.02 28.312 58.267 19.793 44.678 15.834 L 16.062 32.516 c 13.237 3.856 22.585 12.04 25.803 25.83 C 42.132 59.488 43.415 60.059 44.431 59.472 z" style="stroke: none; stroke-width: 1; stroke-dasharray: none; stroke-linecap: butt; stroke-linejoin: miter; stroke-miterlimit: 10; fill: rgb(145,161,185); fill-rule: nonzero; opacity: 1;" transform=" matrix(1 0 0 1 0 0) " stroke-linecap="round" />
	<polygon points="88.97,64.85 72.14,55.14 47.45,69.39 64.28,79.11 " style="stroke: none; stroke-width: 1; stroke-dasharray: none; stroke-linecap: butt; stroke-linejoin: miter; stroke-miterlimit: 10; fill: rgb(231,235,242); fill-rule: nonzero; opacity: 1;" transform="  matrix(1 0 0 1 0 0) "/>
	<path d="M 45.888 71.302 c -0.172 0 -0.341 -0.09 -0.433 -0.25 c -0.139 -0.239 -0.057 -0.545 0.183 -0.683 l 28.894 -16.682 c 0.238 -0.138 0.545 -0.057 0.683 0.183 c 0.139 0.239 0.057 0.545 -0.183 0.683 L 46.138 71.234 C 46.059 71.28 45.973 71.302 45.888 71.302 z" style="stroke: none; stroke-width: 1; stroke-dasharray: none; stroke-linecap: butt; stroke-linejoin: miter; stroke-miterlimit: 10; fill: rgb(145,161,185); fill-rule: nonzero; opacity: 1;" transform=" matrix(1 0 0 1 0 0) " stroke-linecap="round" />
	<ellipse cx="85.267" cy="51.806" rx="1.047" ry="1.766" style="stroke: none; stroke-width: 1; stroke-dasharray: none; stroke-linecap: butt; stroke-linejoin: miter; stroke-miterlimit: 10; fill: rgb(145,161,185); fill-rule: nonzero; opacity: 1;" transform=" matrix(0.9849 -0.1732 0.1732 0.9849 -7.6856 15.5533) "/>
	<ellipse cx="81.267" cy="53.745999999999995" rx="1.047" ry="1.766" style="stroke: none; stroke-width: 1; stroke-dasharray: none; stroke-linecap: butt; stroke-linejoin: miter; stroke-miterlimit: 10; fill: rgb(145,161,185); fill-rule: nonzero; opacity: 1;" transform=" matrix(0.9849 -0.1732 0.1732 0.9849 -8.0815 14.8903) "/>
	<path d="M 23.964 35.579 L 52.756 18.97 c -1.89 -0.923 -3.72 -1.714 -5.453 -2.297 L 18.831 33.406 C 20.599 34.103 22.348 34.786 23.964 35.579 z" style="stroke: none; stroke-width: 1; stroke-dasharray: none; stroke-linecap: butt; stroke-linejoin: miter; stroke-miterlimit: 10; fill: rgb(129,146,171); fill-rule: nonzero; opacity: 1;" transform=" matrix(1 0 0 1 0 0) " stroke-linecap="round" />
	<polygon points="46.75,22.43 23.96,35.58 22.06,34.74 22.06,14.25 46.75,0 " style="stroke: none; stroke-width: 1; stroke-dasharray: none; stroke-linecap: butt; stroke-linejoin: miter; stroke-miterlimit: 10; fill: rgb(231,235,242); fill-rule: nonzero; opacity: 1;" transform="  matrix(1 0 0 1 0 0) "/>
</g>
</svg>